<svg width="394" height="511" viewBox="0 0 394 511" fill="none" xmlns="http://www.w3.org/2000/svg">
<path d="M249.394 259.064H144.606C138.819 259.064 134.128 263.612 134.128 269.222V370.81C134.128 376.42 138.819 380.968 144.606 380.968H249.394C255.181 380.968 259.872 376.42 259.872 370.81V269.222C259.872 263.612 255.181 259.064 249.394 259.064Z" fill="#1F1F1F"/>
<path d="M383.521 389.095H278.734C272.947 389.095 268.255 393.643 268.255 399.254V500.841C268.255 506.452 272.947 511 278.734 511H383.521C389.308 511 394 506.452 394 500.841V399.254C394 393.643 389.309 389.095 383.521 389.095Z" fill="#161616"/>
<path d="M383.521 129.032H278.734C272.947 129.032 268.255 133.58 268.255 139.19V240.778C268.255 246.388 272.947 250.937 278.734 250.937H383.521C389.309 250.937 394 246.388 394 240.778V139.19C394 133.58 389.308 129.032 383.521 129.032Z" fill="#2C2C2C"/>
<path d="M249.394 -1H144.606C138.819 -1 134.128 3.54822 134.128 9.15873V110.746C134.128 116.357 138.819 120.905 144.606 120.905H249.394C255.181 120.905 259.872 116.357 259.872 110.746V9.15873C259.872 3.54822 255.181 -1 249.394 -1Z" fill="#2F2F2F"/>
<path d="M115.266 -1H10.4787C4.69148 -1 0 3.54822 0 9.15873V110.746C0 116.357 4.69148 120.905 10.4787 120.905H115.266C121.053 120.905 125.745 116.357 125.745 110.746V9.15873C125.745 3.54822 121.053 -1 115.266 -1Z" fill="#1B1B1B"/>
<path d="M115.266 259.064H10.4787C4.69148 259.064 0 263.612 0 269.222V370.81C0 376.42 4.69148 380.968 10.4787 380.968H115.266C121.053 380.968 125.745 376.42 125.745 370.81V269.222C125.745 263.612 121.053 259.064 115.266 259.064Z" fill="#191919"/>
<path d="M115.266 389.095H10.4787C4.69148 389.095 0 393.643 0 399.254V500.841C0 506.452 4.69148 511 10.4787 511H115.266C121.053 511 125.745 506.452 125.745 500.841V399.254C125.745 393.643 121.053 389.095 115.266 389.095Z" fill="#1E1E1E"/>
</svg>
